<svg height="512pt" viewBox="0 0 512 512" width="512pt" xmlns="http://www.w3.org/2000/svg" xmlns:xlink="http://www.w3.org/1999/xlink"><linearGradient id="a" gradientUnits="userSpaceOnUse" x1="0" x2="512" y1="256" y2="256"><stop offset="0" stop-color="#00f38d"/><stop offset="1" stop-color="#009eff"/></linearGradient><path d="m512 256c0 141.386719-114.613281 256-256 256s-256-114.613281-256-256 114.613281-256 256-256 256 114.613281 256 256zm0 0" fill="url(#a)"/><g fill="#fff"><path d="m256 94.78125c-71.296875 0-129.304688 58.007812-129.304688 129.304688v3.53125c0 84.167968 115.585938 178.519531 120.507813 182.492187l8.796875 7.109375 8.796875-7.109375c4.921875-3.972656 120.507813-98.324219 120.507813-182.492187v-3.53125c0-71.296876-58.007813-129.304688-129.304688-129.304688zm101.304688 132.835938c0 58.820312-75.195313 130.183593-101.304688 153.1875-26.117188-23.011719-101.304688-94.375-101.304688-153.1875v-3.53125c0-55.859376 45.445313-101.304688 101.304688-101.304688s101.304688 45.445312 101.304688 101.304688zm0 0"/><path d="m243.535156 218.476562h24.929688v24.929688h-24.929688zm0 0"/><path d="m256.316406 145.300781-77.851562 71.019531 17.414062 19.085938v22.335938c0 18.027343 14.667969 32.695312 32.695313 32.695312h56.09375c18.03125 0 32.699219-14.667969 32.699219-32.695312v-23.007813l16.796874-18.414063zm28.355469 117.136719h-56.097656c-2.589844 0-4.695313-2.105469-4.695313-4.695312v-44.945313l32.4375-29.59375 33.050782 30.152344v44.386719c0 2.589843-2.105469 4.695312-4.695313 4.695312zm0 0"/></g></svg>