<?xml version="1.0" ?><svg enable-background="new 0 0 32 32" version="1.1" viewBox="0 0 32 32" xml:space="preserve" xmlns="http://www.w3.org/2000/svg" xmlns:xlink="http://www.w3.org/1999/xlink"><g id="Layer_9_copy_3"><g><g><polygon points="2.5,0 2.5,24.5 16,32 29.5,24.5 29.5,0    "/><polygon fill="#0BA4E0" points="29.5,6.705 27.832,8.373 27.832,25.426 29.5,24.5    "/></g><polygon fill="#0BA4E0" points="2.5,6.705 2.5,24.5 4.168,25.426 4.168,8.373   "/><polygon fill="#FFFFFF" opacity="0.3" points="29.5,11.5 2.5,20.833 2.5,0 29.5,0   "/></g><path d="M19.082,22.493h-2.263h-2.265c0,0,0.006-1.344,0-2.265c-3.099,0.667-3.964-1.699-3.964-1.699   c-0.566-1.132-1.132-1.699-1.132-1.699c-1.132-0.673,0-0.566,0-0.566c1.132,0,1.699,1.132,1.699,1.132   c0.994,1.687,2.762,1.416,3.397,1.132c0-0.566,0.248-1.422,0.566-1.699c-2.473-0.279-4.532-1.699-4.532-4.53   s0.568-3.397,1.135-3.964c-0.114-0.279-0.588-1.311,0.018-2.831c0,0,1.113,0,2.245,1.699c0.561-0.561,2.265-0.566,2.832-0.566   c0.565,0,2.269,0.005,2.83,0.566c1.132-1.699,2.248-1.699,2.248-1.699c0.605,1.52,0.132,2.552,0.017,2.831   c0.566,0.566,1.132,1.132,1.132,3.964s-2.056,4.251-4.53,4.53c0.319,0.276,0.566,1.251,0.566,1.699L19.082,22.493L19.082,22.493z" fill="#FFFFFF" id="Cat_3_"/></g><g id="Layer_7"/></svg>