<?xml version="1.0" ?><svg enable-background="new 0 0 32 32" version="1.1" viewBox="0 0 32 32" xml:space="preserve" xmlns="http://www.w3.org/2000/svg" xmlns:xlink="http://www.w3.org/1999/xlink"><g id="Layer_9_copy_3"><g><g><polygon points="2.5,0 2.5,24.5 16,32 29.5,24.5 29.5,0    "/><polygon fill="#0BA4E0" points="29.5,6.705 27.832,8.373 27.832,25.426 29.5,24.5    "/></g><polygon fill="#0BA4E0" points="2.5,6.705 2.5,24.5 4.168,25.426 4.168,8.373   "/><polygon fill="#FFFFFF" opacity="0.3" points="29.5,11.5 2.5,20.833 2.5,0 29.5,0   "/></g><path d="M19.55,19.509l1.502-0.901v0.82l-5.063,3.196l-4.951-3.219v-0.772l1.481,0.878l0.165,0.097l0.152-0.116   l3.198-2.455l3.197,2.455l0.153,0.116L19.55,19.509z M16.044,9.95l4.87,2.798L16,16.003l-4.883-3.076L16.044,9.95z M24.5,10.113   l-5.017-3.206l-3.449,2.892l-3.371-2.892L7.5,10.27l3.555,2.704L7.5,15.678l3.537,2.095l1.625,0.962l3.371-2.587l3.37,2.587   l1.648-0.989l3.448-2.069l-3.292-2.822L24.5,10.113z" fill="#FFFFFF"/></g><g id="Layer_7"/></svg>